<?xml version="1.0" encoding="UTF-8" standalone="no"?>
<!-- Created with Inkscape (http://www.inkscape.org/) -->

<svg
   version="1.1"
   id="svg55"
   width="500"
   height="500"
   viewBox="0 0 500 500"
   sodipodi:docname="apb-logo.png"
   xmlns:inkscape="http://www.inkscape.org/namespaces/inkscape"
   xmlns:sodipodi="http://sodipodi.sourceforge.net/DTD/sodipodi-0.dtd"
   xmlns="http://www.w3.org/2000/svg"
   xmlns:svg="http://www.w3.org/2000/svg">
  <defs
     id="defs59" />
  <sodipodi:namedview
     id="namedview57"
     pagecolor="#ffffff"
     bordercolor="#000000"
     borderopacity="0.25"
     inkscape:showpageshadow="2"
     inkscape:pageopacity="0.0"
     inkscape:pagecheckerboard="0"
     inkscape:deskcolor="#d1d1d1"
     showgrid="false" />
  <g
     inkscape:groupmode="layer"
     inkscape:label="Image"
     id="g61">
    <path
       style="fill:#000000"
       d="m 146.96737,362.86903 c 1.57476,-1.57476 1.69071,-29.37869 0.12656,-30.34539 -0.66518,-0.4111 -0.23206,-1.25275 1.13875,-2.21291 1.68895,-1.18298 2.62994,-1.2886 3.9783,-0.44654 1.29936,0.81146 2.60541,0.78613 4.94204,-0.0958 4.57076,-1.72526 6.01435,0.63449 6.01435,9.8313 0,6.60183 -0.186,7.23311 -2.43279,8.25681 -2.24968,1.02503 -2.34376,1.34678 -1.25,4.27497 0.65054,1.74158 2.42258,4.21288 3.93789,5.49179 l 2.75509,2.32527 -2.2276,1.56028 c -3.95269,2.76857 -4.50018,2.29797 -8.78273,-7.54927 -0.86762,-1.99499 -0.97498,-1.61404 -0.64898,2.30267 0.38627,4.64077 0.34721,4.71051 -3.50036,6.25 -4.67231,1.86949 -5.64921,1.95556 -4.05052,0.35687 z m 10,-16 c 1.24961,-1.24961 1.64848,-9.46771 0.59301,-12.21821 -0.33384,-0.86999 -1.23384,-1.58179 -2,-1.58179 -1.06686,0 -1.39301,1.75601 -1.39301,7.5 0,7.4567 0.50563,8.59437 2.8,6.3 z m 15.16482,15.26574 c 0.57232,-1.0694 1.03518,-8.2006 1.03518,-15.9489 v -14.01464 l 5.47735,-1.72658 c 5.24919,-1.65466 5.56161,-1.65034 7.5,0.10388 1.61997,1.46605 2.02265,3.0771 2.02265,8.09215 0,4.03157 0.44519,6.46944 1.25,6.84502 1,0.46666 1,0.7 0,1.16666 -1.51004,0.70469 -1.72612,11.00438 -0.25,11.91667 1.6752,1.03533 1.13281,2.11846 -1.70935,3.41343 -3.76331,1.71468 -5.29065,-0.62499 -5.29065,-8.10456 0,-5.1422 -0.22953,-5.80887 -2,-5.80887 -1.73015,0 -2,0.66667 -2,4.94098 0,2.71754 0.45,5.2191 1,5.55902 1.87499,1.15881 1.00376,2.28134 -3.02024,3.89142 -5.08134,2.03315 -5.2692,2.01791 -4.01494,-0.32568 z m 9.8329,-22.82578 c 0.27284,-5.71869 0.12665,-6.23996 -1.75,-6.23996 -1.85595,0 -2.04772,0.61561 -2.04772,6.57332 0,5.72064 0.22701,6.53008 1.75,6.23996 1.40383,-0.26742 1.80889,-1.56771 2.04772,-6.57332 z m 14.32984,23.10675 c 2.08491,-2.51156 2.55066,-24.28083 0.603,-28.18499 -1.406,-2.81841 -1.36009,-3.02203 0.96157,-4.26454 1.73871,-0.93053 2.90995,-1.00717 4.08308,-0.26717 1.1271,0.71095 2.49814,0.71563 4.35474,0.0148 5.13737,-1.93914 5.87005,-0.0771 5.87005,14.91858 0,7.80033 0.41432,13.5746 1,13.93657 1.62369,1.0035 1.15773,2.1071 -1.37733,3.26215 -4.01081,1.82749 -4.62267,0.006 -4.62267,-13.76211 0,-11.99408 -0.64126,-15 -3.2,-15 -0.44,0 -0.8,5.85 -0.8,13 0,8 0.38462,13 1,13 2.32318,0 0.69288,1.62318 -3.26426,3.25 -5.30706,2.18179 -6.35737,2.20383 -4.60818,0.0967 z m 90.67016,0.39702 c 0.57779,-0.6962 1.18966,-7.60704 1.37245,-15.50142 0.28577,-12.34225 0.12278,-14.24496 -1.22017,-14.24373 -0.8525,7.8e-4 -2.01907,0.47049 -2.59238,1.0438 -1.34361,1.34361 -3.80678,-1.4295 -3.04139,-3.42408 0.73882,-1.92533 17.57126,-2.82089 19.55209,-1.04025 2.04435,1.83773 0.45763,3.42195 -3.42734,3.42195 h -3.44098 v 12.91667 c 0,9.43974 0.33648,13.03119 1.25,13.34214 0.6875,0.23401 -0.64457,1.39651 -2.96016,2.58333 -4.82096,2.47092 -7.10584,2.846 -5.49212,0.90159 z m 43.54729,-0.57247 c 1.35764,-1.50018 1.65499,-4.11715 1.65499,-14.56574 0,-7.00535 -0.46688,-13.60938 -1.03751,-14.67561 -0.86275,-1.61205 -0.61506,-2.13109 1.47039,-3.08128 1.8955,-0.86365 2.85407,-0.85537 3.92558,0.0339 1.08958,0.90428 2.04939,0.88876 4.14709,-0.067 2.44662,-1.11476 2.92443,-1.00274 4.61192,1.08122 1.40584,1.73613 1.88253,3.94814 1.88253,8.73548 0,5.90842 -0.20065,6.50208 -2.56113,7.57759 -2.07484,0.94536 -2.44196,1.64173 -1.93351,3.66756 0.75381,3.00345 4.25966,8.12263 5.56273,8.12263 1.87885,0 0.85868,1.71234 -1.72022,2.88736 -3.36015,1.53099 -4.18365,0.75022 -7.04627,-6.68067 l -2.19841,-5.70669 -0.0516,4.19098 c -0.0284,2.30504 0.3984,4.4691 0.9484,4.80902 1.89258,1.16968 0.98973,2.2322 -3.28343,3.86414 -5.50405,2.10202 -6.41215,2.06195 -4.37156,-0.19288 z m 9.45683,-15.02763 c 0.90381,-0.57327 1.20956,-2.78222 1,-7.22464 -0.24317,-5.1552 -0.64197,-6.4637 -2.05184,-6.73227 -1.54196,-0.29374 -1.75,0.56694 -1.75,7.23996 0,7.53356 0.31685,8.29315 2.80184,6.71695 z m -214.18903,13.71396 c -1.27621,-1.82204 -1.61281,-4.92758 -1.61281,-14.8801 0,-8.15881 -0.40476,-12.98225 -1.15213,-13.72962 -1.73718,-1.73718 3.53877,-4.0018 5.51059,-2.36534 1.08745,0.9025 2.02519,0.89979 4.02555,-0.0116 2.19667,-1.00087 2.92386,-0.90225 4.61193,0.62543 2.67288,2.41893 2.86185,10.92426 0.27487,12.372 -1.63891,0.91718 -1.63891,1.06745 0,2.87843 1.21003,1.33706 1.72919,3.60942 1.72919,7.56857 0,5.57683 -0.0529,5.67993 -3.69165,7.20031 -6.65898,2.7823 -7.95427,2.82798 -9.69554,0.34196 z m 7.38719,-7.43091 c 0,-4.76769 -0.25297,-5.52536 -1.75,-5.24145 -3.11588,0.5909 -2.86153,10.81477 0.26905,10.81477 1.13079,0 1.48095,-1.31779 1.48095,-5.57332 z m -0.5,-15.44038 c 0,-3.32116 -0.38957,-4.4863 -1.5,-4.4863 -1.08398,0 -1.58549,1.34084 -1.80824,4.83454 -0.26853,4.21158 -0.0752,4.78967 1.5,4.48631 1.42387,-0.27422 1.80824,-1.30188 1.80824,-4.83455 z m 91.4258,23.4279 c -1.03085,-1.23948 -1.51844,-5.34287 -1.76022,-14.81354 -0.18393,-7.20455 -0.72355,-13.56805 -1.19916,-14.14112 -0.53006,-0.63869 -0.0568,-1.54652 1.22282,-2.34565 1.69771,-1.06024 2.53237,-1.06565 4.46937,-0.029 1.82985,0.9793 2.6552,1.0013 3.5616,0.0949 1.78364,-1.78364 4.58301,-1.41599 5.74461,0.75447 0.56935,1.06384 1.03518,7.8368 1.03518,15.05103 v 13.11676 l -3.30537,1.38108 c -6.1214,2.55768 -8.24749,2.76032 -9.76883,0.93107 z m 7.86655,-12.99526 c 0.33089,-11.22676 -0.18083,-14.41894 -2.3114,-14.41894 -1.2245,0 -1.48095,2.04914 -1.48095,11.83333 0,6.50834 0.30937,12.14271 0.6875,12.52084 1.97184,1.97183 2.83534,-0.79131 3.10485,-9.93523 z m 30.40765,11.19546 -1.99756,-3.38561 2.44583,-1.11439 c 3.18396,-1.45071 2.92294,-1.56381 4.35173,1.8856 1.96422,4.74205 3,3.53364 3,-3.5 0,-6.87586 -0.78881,-7.75376 -4.96074,-5.52101 -3.00932,1.61054 -4.16955,-1.00007 -3.837,-8.63354 0.29237,-6.7113 0.36087,-6.86537 3.79774,-8.54198 5.00157,-2.43992 6.74248,-2.20215 8.48018,1.15821 1.45013,2.80423 1.41583,3.02361 -0.64515,4.12661 -1.80604,0.96656 -2.40304,0.8554 -3.50586,-0.65281 -0.73105,-0.99976 -1.32917,-2.18173 -1.32917,-2.62661 0,-0.44488 -0.45,-0.80887 -1,-0.80887 -0.56515,0 -1,2.8558 -1,6.56739 0,6.36338 0.0699,6.54438 2.25,5.82683 4.64383,-1.52845 6.05109,-1.034 6.97193,2.44963 0.48614,1.83912 0.74758,5.20272 0.58098,7.47467 -0.26755,3.64865 -0.76979,4.39446 -4.30291,6.38969 -5.41348,3.05711 -6.95808,2.87545 -9.3,-1.09381 z m 46.41281,1.24319 c -1.28575,-1.83566 -1.61281,-4.97608 -1.61281,-15.48609 v -13.1835 l 4.67814,-1.594 c 9.54854,-3.25351 10.24833,-2.22372 10.29006,15.14258 l 0.0318,13.23658 -3.69165,1.54247 c -6.65898,2.7823 -7.95427,2.82798 -9.69554,0.34196 z m 7.38719,-14.85759 c 0,-12.33333 -0.10256,-13 -2,-13 -1.88323,0 -2,0.66667 -2,11.41821 0,12.23094 0.42029,14.58179 2.60699,14.58179 1.11924,0 1.39301,-2.55487 1.39301,-13 z m 43.17431,14.68555 c -2.00358,-2.13271 -2.17431,-3.34129 -2.17431,-15.39142 v -13.07697 l 4.02024,-1.60858 c 5.7285,-2.29209 6.93986,-2.05806 7.64695,1.47737 0.33945,1.69727 1.2282,3.32041 1.975,3.60699 2.22225,0.85276 1.55877,2.04135 -1.79141,3.20923 -1.73208,0.60381 -3.27132,1.09783 -3.42055,1.09783 -0.14922,0 -0.5667,-1.34484 -0.92771,-2.98853 -1.17552,-5.3521 -2.50252,-4.32894 -2.50252,1.92951 v 6.05902 h 3 c 1.65,0 3,0.45 3,1 0,0.55 -1.35,1 -3,1 -2.91667,0 -3,0.13333 -3,4.8 0,5.4963 1.23045,7.2 5.2,7.2 3.78136,0 3.53323,1.33308 -0.521,2.79911 -4.49807,1.62653 -5.00055,1.55197 -7.50469,-1.11356 z m -86.82147,-50.32686 c 0.34516,-1.57228 0.92641,-9.94619 1.29167,-18.60869 0.57585,-13.65708 0.46392,-15.75 -0.84232,-15.75 -2.62913,0 -8.24119,4.41845 -9.96163,7.84293 -1.62242,3.22936 -1.67652,3.25123 -2.42449,0.98007 -0.42078,-1.27765 -0.72016,-4.72504 -0.6653,-7.66086 0.1317,-7.04765 3.68577,-12.58301 9.8219,-15.29731 l 4.42733,-1.95842 v -12.4532 -12.45321 h -3.92857 c -4.0224,0 -7.07143,1.97109 -7.07143,4.57143 0,2.95774 -1.96458,1.27382 -3,-2.57143 -1.29553,-4.81123 0.0201,-10.80322 2.9552,-13.45946 1.08,-0.97739 4.0069,-2.00737 6.50422,-2.28886 l 4.54058,-0.51178 -0.0564,-12.61995 c -0.0698,-15.61657 -1.16932,-19.49669 -5.64735,-19.92986 -4.31173,-0.41709 -6.90982,1.14989 -9.1516,5.51957 l -1.87149,3.64792 -1.22696,-3.71772 c -2.80602,-8.50232 3.10716,-19.2577 11.88751,-21.622 11.95948,-3.22035 19.94586,4.54813 20.41066,19.85379 0.0856,2.8194 0.24245,5.12666 0.34851,5.12726 0.10606,6e-4 1.79356,-0.94336 3.75,-2.09769 l 3.55712,-2.09877 v -10.90123 c 0,-6.60081 0.39449,-10.90122 1,-10.90122 0.6004,0 1,4.01995 1,10.05985 v 10.05985 l 7.68797,-5.30985 c 4.22839,-2.92042 9.9785,-7.40121 12.77803,-9.95732 l 5.09006,-4.64748 3.67311,3.36616 c 4.34939,3.98591 8.0751,5.12987 11.94719,3.66832 2.29706,-0.86704 2.82364,-0.793 2.82364,0.39699 0,2.35392 -2.58298,6.63676 -5.91072,9.80057 l -3.08928,2.93709 0.0239,35.56291 c 0.0218,32.54203 0.32872,38.39299 2.34282,44.66698 0.63388,1.97455 0.22789,2.14124 -6.59561,2.70805 -10.04541,0.83443 -14.23352,2.39905 -19.78712,7.39222 -5.23763,4.70904 -6.13519,5.02333 -7.98399,2.79566 -0.68469,-0.825 -1.63979,-1.5 -2.12244,-1.5 -0.48266,0 -0.87756,6.75 -0.87756,15 0,8.25 -0.37285,15 -0.82856,15 -1.2611,0 -9.58443,-5.69388 -11.63409,-7.95873 -1.79601,-1.98457 -1.84139,-1.96914 -5.60066,1.90453 -2.08449,2.14792 -4.7848,4.43773 -6.00069,5.08845 -2.08649,1.11666 -2.17545,1.02251 -1.58316,-1.67556 z m 23.20816,-114.13103 c -0.25069,-0.25069 -2.08478,0.55097 -4.07576,1.78146 l -3.61996,2.23726 0.32139,48.62681 c 0.29142,44.09308 0.48773,48.99634 2.1055,52.59021 0.98126,2.17987 2.55444,4.81472 3.49597,5.85522 1.61826,1.78838 1.72599,-1.18466 1.97026,-54.37167 0.14212,-30.94492 0.0533,-56.4686 -0.1974,-56.71929 z m 22.21917,64.01637 0.28017,-12.09258 -5.61013,-0.70094 c -3.08557,-0.38551 -7.48665,-0.3066 -9.78017,0.17537 l -4.17004,0.87632 -0.29223,6.59691 -0.29222,6.59692 4.48007,1.71096 c 2.46403,0.94102 6.42053,3.46469 8.79222,5.60816 2.37169,2.14346 4.76216,3.76766 5.31216,3.60933 0.57516,-0.16558 1.11903,-5.42525 1.28017,-12.38045 z m 0.21751,-30.74403 v -16 h -9.9993 -9.99931 v 16 16 h 9.99931 9.9993 z m -3.12268,-18.125 3.125,-0.625 v -9.20764 -9.20763 l -3.99335,-3.20914 -3.99335,-3.20915 -6.00665,4.07904 -6.00665,4.07904 v 7.99497 c 0,7.35643 0.1797,8.06719 2.25,8.89935 2.67018,1.07328 10.23849,1.28346 14.625,0.40616 z m -139.375,71.8195 c -8.1853,-3.51808 -19.94808,-3.67817 -26.29149,-0.35782 l -4.29149,2.2463 2.15151,-4.29149 c 3.94075,-7.8604 9.41071,-12.21281 18.43709,-14.67028 l 3.99438,-1.08749 8.7858,-23.76686 8.78581,-23.76686 -3.05158,-2.75 c -3.97195,-3.57941 -8.76946,-3.67316 -12.83664,-0.25086 -3.5446,2.98259 -4.48669,1.77953 -3.17183,-4.05041 2.38144,-10.55897 13.98687,-16.60362 22.96461,-11.96105 2.85557,1.47667 2.88553,1.4614 4.04859,-2.0627 1.01517,-3.07601 0.9251,-3.8229 -0.67415,-5.59006 -5.57627,-6.1617 -16.68355,-6.35912 -22.64027,-0.4024 -1.61379,1.61378 -1.7091,1.60751 -1.68838,-0.11109 0.0436,-3.61776 3.79382,-10.0079 7.97248,-13.58468 6.05049,-5.17899 13.15333,-6.68586 20.53972,-4.3575 3.0995,0.97703 5.89894,2.56149 6.49568,3.6765 0.57678,1.07772 7.76586,19.49427 15.97573,40.92567 8.20987,21.43139 15.83618,40.74822 16.94735,42.92629 2.64141,5.1776 5.53708,7.09229 10.72599,7.09229 h 4.2339 l -5.39537,7.52003 c -2.96746,4.13601 -5.67817,8.41101 -6.0238,9.5 -0.82731,2.60664 -3.42001,2.50417 -7.58053,-0.2996 -4.39966,-2.96493 -6.73819,-7.27669 -13.01231,-23.992 l -5.16919,-13.77157 -18.49223,0.27157 -18.49223,0.27157 -2.88274,7.5 c -1.58551,4.125 -3.11412,8.22505 -3.39691,9.11122 -0.42547,1.33323 0.57594,1.69872 5.80435,2.1184 3.47519,0.27896 7.79302,1.26968 9.59517,2.20161 2.59071,1.33971 3.58068,1.4421 4.72898,0.4891 2.69071,-2.2331 2.71648,0.008 0.038,3.30793 -1.4607,1.79946 -4.46768,5.85924 -6.68218,9.02174 -2.21451,3.1625 -4.1221,5.699 -4.23911,5.63666 -0.11701,-0.0623 -2.91274,-1.2738 -6.21274,-2.69216 z m 34.5,-51.84395 c 0,-1.26157 -12.50714,-33.34008 -13.00105,-33.34528 -0.27557,-0.003 -2.21734,4.83223 -4.31504,10.74473 -2.0977,5.9125 -4.88913,13.5625 -6.20319,17 l -2.38919,6.25 h 12.95424 c 7.12482,0 12.95423,-0.29225 12.95423,-0.64945 z"
       id="path223" />
  </g>
</svg>
